<svg width="60" height="55" viewBox="0 0 60 55" fill="none" xmlns="http://www.w3.org/2000/svg">
<path fill-rule="evenodd" clip-rule="evenodd" d="M29.8204 3.3724C34.7404 3.78806 39.6377 1.41743 44.3246 3.04352C49.7599 4.92923 55.4795 7.84071 58.1044 13.1852C60.7534 18.5788 60.5191 25.529 58.0673 31.0245C55.7951 36.1176 49.3032 37.0593 45.6283 41.1495C42.1911 44.975 41.9598 51.7478 37.4313 53.9921C32.8514 56.2618 27.4201 54.2213 22.6106 52.5568C17.9214 50.9338 13.8091 48.1689 10.2424 44.582C6.38593 40.7038 2.72486 36.4637 1.24826 31.0736C-0.349245 25.2423 -0.617924 18.8206 1.65706 13.2431C3.95474 7.61002 8.20236 2.3985 13.7355 0.459242C19.0033 -1.38704 24.2851 2.90476 29.8204 3.3724Z" fill="#FFC900"/>
</svg>
