<svg width="60" height="60" viewBox="0 0 60 60" fill="none" xmlns="http://www.w3.org/2000/svg">
<path fill-rule="evenodd" clip-rule="evenodd" d="M32.226 2.89905C37.2962 3.98005 42.2615 5.27821 46.3314 8.49713C50.279 11.6193 52.5024 16.1042 54.6726 20.6519C57.1978 25.9438 60.5303 31.1563 59.9287 36.9917C59.2532 43.5439 56.367 50.088 51.2163 54.1761C45.9689 58.3408 38.3024 61.7907 32.226 58.9789C25.9413 56.0708 28.4793 44.9409 22.7721 41.0139C16.7548 36.8736 6.3126 43.5509 1.63748 37.9319C-2.56263 32.884 2.41537 25.1646 4.36138 18.8866C6.33514 12.5191 7.1949 4.69496 12.9665 1.38346C18.6961 -1.90391 25.7692 1.52241 32.226 2.89905Z" fill="#FFC900"/>
</svg>
