<svg width="60" height="55" viewBox="0 0 60 55" fill="none" xmlns="http://www.w3.org/2000/svg">
<path fill-rule="evenodd" clip-rule="evenodd" d="M29.2215 0.625505C35.132 -0.259612 41.307 -0.559785 46.6399 2.17282C52.5285 5.19017 59.24 9.71307 59.9432 16.3675C60.6528 23.0818 54.5607 28.468 49.9316 33.3205C46.8433 36.5577 41.5808 36.1217 38.2528 39.1043C34.284 42.6611 34.0108 49.5887 29.2215 51.8811C23.518 54.611 14.9059 57.0879 10.7689 52.2592C6.29866 47.0417 14.2643 38.692 12.2606 32.0846C10.3172 25.6758 -0.732348 23.5342 0.038457 16.8747C0.75812 10.6571 9.76768 9.8966 15.1775 6.88442C19.7723 4.326 24.0363 1.40201 29.2215 0.625505Z" fill="#FFC900"/>
</svg>
