<svg width="60" height="58" viewBox="0 0 60 58" fill="none" xmlns="http://www.w3.org/2000/svg">
<path fill-rule="evenodd" clip-rule="evenodd" d="M29.1621 0.134236C35.262 -0.681672 41.1979 2.38215 46.3507 5.33792C51.3238 8.19062 55.7177 11.9593 58.0749 16.7195C60.3201 21.2534 60.4806 26.4407 59.1803 31.2462C58.0128 35.5611 53.3033 38.2768 51.1544 42.2959C48.7273 46.8351 50.3482 53.2526 45.784 56.3004C41.3072 59.2899 34.768 57.5432 29.1621 56.9814C24.0442 56.4685 18.6784 55.9302 14.6128 53.1765C10.7192 50.5394 9.42899 46.0995 7.34781 42.2065C5.43668 38.6316 3.87869 35.0938 2.88883 31.2462C1.66947 26.5067 -1.53186 21.4155 0.87109 17.0318C3.25695 12.6794 10.2068 12.2902 14.7756 9.56138C19.8108 6.55398 23.126 0.941626 29.1621 0.134236Z" fill="#FFC900"/>
</svg>
