<svg width="20" height="18" viewBox="0 0 20 18" fill="none" xmlns="http://www.w3.org/2000/svg">
<path fill-rule="evenodd" clip-rule="evenodd" d="M16.6391 10.9859C16.2142 11.3756 16.0212 11.9372 16.1207 12.488L16.7625 16.0124C16.9626 17.1095 16.0371 18.0005 14.9872 18.0005C14.7106 18.0005 14.4249 17.9384 14.1483 17.8016L10.7897 16.1375C10.527 16.0079 10.2394 15.9431 9.95078 15.9431C9.66319 15.9431 9.37559 16.0079 9.11288 16.1375L5.75427 17.8016C5.47762 17.9384 5.19201 18.0005 4.91536 18.0005C3.86548 18.0005 2.94 17.1095 3.14003 16.0124L3.78189 12.488C3.88141 11.9372 3.68835 11.3756 3.26342 10.9859L0.545687 8.49019C-0.523097 7.50829 0.0670261 5.79739 1.54382 5.59489L5.29949 5.08099C5.88662 5.00089 6.39414 4.65349 6.65587 4.15219L8.33567 0.946384C8.66605 0.315484 9.30892 0.000488281 9.95078 0.000488281C10.5936 0.000488281 11.2365 0.315484 11.5669 0.946384L13.2467 4.15219C13.5084 4.65349 14.0159 5.00089 14.6031 5.08099L18.3587 5.59489C19.8355 5.79739 20.4257 7.50829 19.3569 8.49019L16.6391 10.9859Z" fill="#FFC900"/>
</svg>
